<?xml version="1.0" encoding="utf-8"?>
<!-- Generator: Adobe Illustrator 16.0.0, SVG Export Plug-In . SVG Version: 6.00 Build 0)  -->
<!DOCTYPE svg PUBLIC "-//W3C//DTD SVG 1.1//EN" "http://www.w3.org/Graphics/SVG/1.1/DTD/svg11.dtd">
<svg version="1.1" xmlns="http://www.w3.org/2000/svg" xmlns:xlink="http://www.w3.org/1999/xlink" x="0px" y="0px"
	 width="31.184px" height="32.085px" viewBox="0 0 31.184 32.085" enable-background="new 0 0 31.184 32.085" xml:space="preserve">
<g id="Intro">
	<g>
		<path fill="#E9C759" d="M5.609,15.426c0-0.464-0.377-0.848-0.848-0.848H1.789c-0.465,0-0.848,0.377-0.848,0.848
			c0,0.465,0.377,0.848,0.848,0.848h2.973C5.232,16.274,5.609,15.897,5.609,15.426z"/>
		<path fill="#E9C759" d="M23.25,8.617c0.213,0,0.434-0.082,0.598-0.245l2.104-2.104c0.334-0.333,0.334-0.867,0-1.2
			c-0.332-0.333-0.867-0.333-1.199,0l-2.105,2.104c-0.332,0.333-0.332,0.867,0,1.2C22.816,8.535,23.031,8.617,23.25,8.617z"/>
		<path fill="#E9C759" d="M15.592,5.444c0.465,0,0.848-0.376,0.848-0.848V1.625c0-0.465-0.377-0.848-0.848-0.848
			s-0.848,0.377-0.848,0.848v2.971C14.744,5.067,15.127,5.444,15.592,5.444z"/>
		<path fill="#E9C759" d="M7.338,22.488l-2.105,2.105c-0.332,0.333-0.332,0.867,0,1.2c0.164,0.163,0.383,0.245,0.598,0.245
			c0.213,0,0.434-0.082,0.596-0.245l2.105-2.104c0.332-0.333,0.332-0.867,0-1.2C8.203,22.155,7.664,22.155,7.338,22.488z"/>
		<path fill="#E9C759" d="M7.338,8.365C7.5,8.528,7.721,8.61,7.934,8.61c0.215,0,0.434-0.082,0.598-0.245
			c0.332-0.333,0.332-0.867,0-1.2L6.426,5.061c-0.332-0.333-0.867-0.333-1.199,0c-0.334,0.333-0.334,0.867,0,1.2L7.338,8.365z"/>
		<path fill="#E9C759" d="M29.395,14.579h-2.973c-0.465,0-0.848,0.377-0.848,0.848c0,0.465,0.377,0.848,0.848,0.848h2.973
			c0.465,0,0.848-0.377,0.848-0.848C30.242,14.962,29.865,14.579,29.395,14.579z"/>
		<path fill="#E9C759" d="M18.213,26.59h-5.246c-0.479,0-0.861,0.384-0.861,0.861v0.892c0,0.716,0.521,1.301,1.207,1.408l0.213,0.81
			c0.119,0.44,0.516,0.748,0.975,0.748h2.18c0.457,0,0.854-0.308,0.973-0.748l0.221-0.81c0.678-0.101,1.199-0.691,1.199-1.401
			v-0.892C19.072,26.979,18.689,26.597,18.213,26.59z"/>
		<path fill="#E9C759" d="M23.848,22.488c-0.334-0.333-0.867-0.333-1.201,0c-0.332,0.333-0.332,0.867,0,1.2l2.105,2.104
			c0.164,0.163,0.383,0.245,0.596,0.245c0.215,0,0.434-0.082,0.598-0.245c0.334-0.333,0.334-0.867,0-1.2L23.848,22.488z"/>
		<path fill="#E9C759" d="M15.541,7.913c-4.184,0.031-7.514,3.417-7.469,7.602c0.02,1.991,0.816,3.801,2.098,5.132
			c0.992,1.024,1.641,2.356,1.859,3.757c0.088,0.603,0.617,1.043,1.227,1.043h4.666c0.617,0,1.139-0.446,1.232-1.049
			c0.213-1.4,0.854-2.714,1.848-3.744c1.307-1.351,2.109-3.191,2.109-5.22C23.111,11.261,19.719,7.881,15.541,7.913z"/>
	</g>
</g>
<g id="_x31_2_grid_rules">
</g>
<g id="Navigation">
</g>
<g id="Folds">
</g>
<g id="Layer_4">
</g>
</svg>
