<?xml version="1.0" encoding="utf-8"?>
<!-- Generator: Adobe Illustrator 16.0.0, SVG Export Plug-In . SVG Version: 6.00 Build 0)  -->
<!DOCTYPE svg PUBLIC "-//W3C//DTD SVG 1.1//EN" "http://www.w3.org/Graphics/SVG/1.1/DTD/svg11.dtd">
<svg version="1.1" id="Layer_1" xmlns="http://www.w3.org/2000/svg" xmlns:xlink="http://www.w3.org/1999/xlink" x="0px" y="0px"
	 width="53.625px" height="48.555px" viewBox="0 0 53.625 48.555" enable-background="new 0 0 53.625 48.555" xml:space="preserve">
<g id="Intro">
	<g>
		<path fill="#C15345" d="M35.003,16.867c-1.234-1.755-1.854-3.87-1.854-6.337c0-3.12,0.976-5.655,2.926-7.605
			C38.024,0.975,40.431,0,43.29,0c3.12,0,5.624,1.006,7.508,3.022c1.886,2.014,2.827,4.516,2.827,7.508
			c0,1.56-0.161,3.086-0.487,4.583c-0.323,1.492-1.006,3.671-2.048,6.531l-8.19,26.91H33.54l6.63-28.08
			C37.961,19.823,36.238,18.622,35.003,16.867z M1.854,16.867C0.619,15.113,0,12.997,0,10.531c0-3.12,0.975-5.655,2.925-7.605
			S7.282,0,10.141,0c3.119,0,5.625,1.006,7.508,3.022c1.886,2.015,2.826,4.516,2.826,7.508c0,1.56-0.16,3.086-0.486,4.583
			c-0.323,1.492-1.006,3.671-2.047,6.531L9.75,48.555H0.391l6.629-28.08C4.811,19.823,3.09,18.622,1.854,16.867z"/>
	</g>
</g>
<g id="_x31_2_grid_rules">
</g>
<g id="Navigation">
</g>
</svg>
