<?xml version="1.0" encoding="utf-8"?>
<!-- Generator: Adobe Illustrator 16.0.0, SVG Export Plug-In . SVG Version: 6.00 Build 0)  -->
<!DOCTYPE svg PUBLIC "-//W3C//DTD SVG 1.1//EN" "http://www.w3.org/Graphics/SVG/1.1/DTD/svg11.dtd">
<svg version="1.1" id="Layer_1" xmlns="http://www.w3.org/2000/svg" xmlns:xlink="http://www.w3.org/1999/xlink" x="0px" y="0px"
	 width="36.105px" height="36.105px" viewBox="0 0 36.105 36.105" enable-background="new 0 0 36.105 36.105" xml:space="preserve">
<g>
	<circle fill="#BD584C" cx="18.053" cy="18.053" r="18.053"/>
	<path fill="#FFFFFF" d="M33.167,10.681c-0.761-0.85-1.885-1.064-3.111-0.166c-1.324,0.97-5.003,3.521-5.217,3.647
		c0,0-0.292,0.219-0.485-0.006l0.003,0.006c-0.137-0.16-0.28-0.314-0.431-0.461c-0.574-0.558-1.251-1.019-2.031-1.377
		c-2.21-1.016-4.499-1.065-6.791-0.368c-1.363,0.415-2.501,1.151-3.393,2.213l0.005-0.009c-0.193,0.225-0.502,0.002-0.502,0.002
		c-0.215-0.126-3.893-2.677-5.217-3.647c-1.227-0.899-2.352-0.684-3.112,0.166c-0.934,1.043-0.942,2.751-0.06,3.84
		c1.107,1.366,3.061,1.015,3.765-0.677c0.069-0.241,0.182-0.267,0.182-0.267s2.871,2.021,3.299,2.331
		c0.427,0.31,0.299,0.552,0.299,0.552l0.005-0.008c-0.6,1.521-0.753,3.132-0.583,4.783c0.25,2.437,1.215,4.458,3.108,5.876
		c1.538,1.151,3.286,1.544,5.204,1.55c0.893-0.009,1.847-0.115,2.783-0.408c1.899-0.594,3.405-1.752,4.381-3.632
		c1.145-2.206,1.32-4.564,0.764-6.986c-0.094-0.41-0.21-0.802-0.349-1.175l0.001,0.001c0,0-0.001-0.001-0.001-0.001
		c-0.002-0.005-0.004-0.01-0.006-0.015c-0.02-0.058-0.059-0.272,0.306-0.536c0.427-0.31,3.298-2.331,3.298-2.331
		s0.112,0.026,0.182,0.267c0.705,1.692,2.658,2.043,3.766,0.677C34.11,13.432,34.102,11.724,33.167,10.681z M23.023,20.197
		c-0.038,1.066-0.29,2.067-0.96,2.941c-0.832,1.086-2.001,1.617-3.389,1.731c-1.764,0.144-3.348-0.223-4.514-1.584
		c-0.795-0.928-1.071-2.029-1.081-3.266c0.02-1.253,0.367-2.462,1.367-3.428c1.134-1.095,2.57-1.407,4.126-1.283
		C21.361,15.531,23.12,17.487,23.023,20.197z"/>
</g>
</svg>
