<?xml version="1.0" encoding="utf-8"?>
<!-- Generator: Adobe Illustrator 16.0.0, SVG Export Plug-In . SVG Version: 6.00 Build 0)  -->
<!DOCTYPE svg PUBLIC "-//W3C//DTD SVG 1.1//EN" "http://www.w3.org/Graphics/SVG/1.1/DTD/svg11.dtd">
<svg version="1.1" xmlns="http://www.w3.org/2000/svg" xmlns:xlink="http://www.w3.org/1999/xlink" x="0px" y="0px"
	 width="53.625px" height="48.555px" viewBox="0 0 53.625 48.555" enable-background="new 0 0 53.625 48.555" xml:space="preserve">
<g id="Intro">
	<g>
		<path fill="#C15345" d="M18.622,31.688c1.234,1.755,1.853,3.87,1.853,6.337c0,3.12-0.975,5.655-2.925,7.605
			c-1.95,1.95-4.356,2.925-7.215,2.925c-3.12,0-5.624-1.006-7.508-3.023C0.941,43.519,0,41.017,0,38.025
			c0-1.56,0.161-3.086,0.487-4.583c0.323-1.493,1.006-3.671,2.048-6.532L10.725,0h9.36l-6.63,28.08
			C15.664,28.732,17.386,29.933,18.622,31.688z M51.772,31.688c1.234,1.755,1.853,3.87,1.853,6.337c0,3.12-0.975,5.655-2.925,7.605
			c-1.95,1.95-4.357,2.925-7.215,2.925c-3.12,0-5.625-1.006-7.508-3.023c-1.886-2.014-2.827-4.515-2.827-7.507
			c0-1.56,0.161-3.086,0.487-4.583c0.323-1.493,1.005-3.671,2.047-6.532L43.875,0h9.36l-6.63,28.08
			C48.814,28.732,50.535,29.933,51.772,31.688z"/>
	</g>
</g>
<g id="_x31_2_grid_rules">
</g>
<g id="Navigation">
</g>
</svg>
